<svg xmlns="http://www.w3.org/2000/svg" xmlns:xlink="http://www.w3.org/1999/xlink" width="500" zoomAndPan="magnify" viewBox="0 0 375 374.999991" height="500" preserveAspectRatio="xMidYMid meet" version="1.0"><defs><g/><clipPath id="1f7c2d4549"><path d="M 163.59375 132.472656 L 211.59375 132.472656 L 211.59375 180.472656 L 163.59375 180.472656 Z M 163.59375 132.472656 " clip-rule="nonzero"/></clipPath></defs><g clip-path="url(#1f7c2d4549)"><path fill="#a8a28a" d="M 169.335938 144.640625 L 169.335938 155.671875 C 169.335938 155.835938 169.335938 156 169.339844 156.160156 C 167.882812 155.882812 166.382812 155.734375 164.847656 155.734375 L 163.710938 155.734375 L 163.710938 156.871094 C 163.710938 164.261719 167.09375 170.867188 172.394531 175.222656 L 172.421875 175.246094 C 176.519531 178.597656 181.75 180.613281 187.449219 180.613281 L 187.460938 180.613281 C 187.46875 180.613281 187.480469 180.613281 187.488281 180.613281 C 187.503906 180.613281 187.519531 180.613281 187.53125 180.613281 C 194.917969 180.613281 201.523438 177.230469 205.878906 171.929688 C 209.246094 167.828125 211.269531 162.585938 211.269531 156.871094 L 211.269531 155.734375 L 210.132812 155.734375 C 208.570312 155.734375 207.042969 155.886719 205.5625 156.175781 C 205.566406 156.007812 205.566406 155.839844 205.566406 155.671875 L 205.566406 144.640625 C 205.566406 141.890625 204.230469 139.335938 201.910156 137.277344 C 198.652344 134.390625 193.40625 132.480469 187.484375 132.472656 L 187.417969 132.472656 C 181.492188 132.480469 176.25 134.390625 172.992188 137.277344 C 170.671875 139.335938 169.335938 141.890625 169.335938 144.640625 Z M 169.558594 158.527344 C 168.410156 158.269531 167.226562 158.101562 166.011719 158.039062 C 166.34375 164.246094 169.320312 169.757812 173.835938 173.46875 L 173.863281 173.488281 C 177.285156 176.289062 181.582031 178.058594 186.285156 178.308594 C 186.195312 176.714844 185.9375 175.167969 185.527344 173.6875 C 177.375 172.824219 170.828125 166.546875 169.558594 158.527344 Z M 204.125 170.488281 C 206.941406 167.0625 208.714844 162.75 208.96875 158.039062 C 207.730469 158.105469 206.515625 158.277344 205.339844 158.546875 C 204.066406 166.53125 197.5625 172.78125 189.457031 173.675781 C 189.042969 175.164062 188.78125 176.714844 188.695312 178.308594 C 194.90625 177.976562 200.417969 175 204.125 170.488281 Z M 171.605469 150.570312 L 171.605469 155.671875 C 171.605469 156.023438 171.617188 156.375 171.640625 156.722656 C 175.191406 157.785156 178.398438 159.65625 181.039062 162.121094 C 183.785156 164.6875 185.929688 167.898438 187.214844 171.515625 C 187.292969 171.515625 187.371094 171.515625 187.449219 171.515625 C 187.554688 171.515625 187.660156 171.515625 187.765625 171.511719 C 189.414062 166.886719 192.460938 162.917969 196.394531 160.117188 C 198.460938 158.648438 200.777344 157.5 203.261719 156.75 C 203.285156 156.394531 203.296875 156.035156 203.296875 155.671875 L 203.296875 150.570312 C 202.886719 151.070312 202.417969 151.546875 201.910156 152.003906 C 200.566406 153.191406 198.882812 154.214844 196.957031 155.007812 C 196.773438 155.164062 196.539062 155.261719 196.28125 155.273438 C 193.675781 156.246094 190.660156 156.808594 187.449219 156.808594 C 181.515625 156.808594 176.257812 154.894531 172.992188 152.003906 C 172.480469 151.546875 172.015625 151.070312 171.605469 150.570312 Z M 172.007812 159.234375 C 173.421875 165.386719 178.425781 170.175781 184.691406 171.277344 C 183.503906 168.414062 181.71875 165.863281 179.488281 163.78125 L 179.46875 163.761719 C 177.339844 161.777344 174.804688 160.222656 172.007812 159.234375 Z M 202.886719 159.261719 C 201.027344 159.929688 199.292969 160.847656 197.710938 161.96875 C 194.445312 164.292969 191.851562 167.511719 190.296875 171.261719 C 196.511719 170.132812 201.46875 165.371094 202.886719 159.261719 Z M 176.003906 145.542969 L 176.003906 151.449219 C 178.914062 153.367188 182.976562 154.535156 187.449219 154.535156 C 190.214844 154.535156 192.820312 154.089844 195.089844 153.296875 L 195.089844 147.058594 C 193.347656 148.363281 190.636719 149.242188 187.570312 149.265625 L 187.464844 149.265625 C 187.460938 149.265625 187.460938 149.265625 187.460938 149.265625 L 187.449219 149.265625 C 182.992188 149.265625 179.046875 147.976562 176.597656 146.046875 C 176.386719 145.886719 176.191406 145.71875 176.003906 145.542969 Z M 187.449219 134.742188 C 183.574219 134.742188 180.128906 135.796875 177.996094 137.472656 C 176.777344 138.433594 176.003906 139.585938 176.003906 140.867188 C 176.003906 142.148438 176.777344 143.304688 177.996094 144.261719 C 179.929688 145.785156 182.949219 146.792969 186.386719 146.96875 L 186.308594 136.863281 L 187.449219 136.863281 C 190.648438 136.863281 193.476562 137.796875 195.238281 139.183594 C 196.609375 140.261719 197.363281 141.625 197.363281 143.066406 L 197.363281 152.335938 C 198.515625 151.753906 199.535156 151.070312 200.398438 150.304688 C 202.195312 148.710938 203.296875 146.765625 203.296875 144.640625 C 203.296875 142.515625 202.195312 140.566406 200.398438 138.976562 C 197.484375 136.394531 192.777344 134.75 187.480469 134.742188 Z M 173.894531 139.554688 C 172.457031 141.03125 171.605469 142.765625 171.605469 144.640625 C 171.605469 146.441406 172.394531 148.113281 173.730469 149.554688 L 173.730469 140.867188 C 173.730469 140.421875 173.785156 139.984375 173.894531 139.554688 Z M 188.65625 146.945312 C 190.773438 146.765625 192.617188 146.117188 193.832031 145.164062 C 194.589844 144.566406 195.089844 143.859375 195.089844 143.066406 C 195.089844 142.269531 194.589844 141.5625 193.832031 140.964844 C 192.609375 140.003906 190.738281 139.351562 188.59375 139.179688 Z M 188.65625 146.945312 " fill-opacity="1" fill-rule="evenodd"/></g><path stroke-linecap="butt" transform="matrix(0.75, 0, 0, 0.75, 232.883324, 156.551752)" fill="none" stroke-linejoin="miter" d="M -0.000682543 1.998706 L 36.87432 1.998706 " stroke="#a8a28a" stroke-width="4" stroke-opacity="1" stroke-miterlimit="4"/><path stroke-linecap="butt" transform="matrix(0.75, 0, 0, 0.75, 114.460075, 156.551752)" fill="none" stroke-linejoin="miter" d="M 0.00115056 1.998706 L 36.876153 1.998706 " stroke="#a8a28a" stroke-width="4" stroke-opacity="1" stroke-miterlimit="4"/><g fill="#695450" fill-opacity="1"><g transform="translate(56.989651, 203.751435)"><g><path d="M 12.71875 -16.421875 C 12.707031 -16.691406 12.632812 -16.878906 12.5 -16.984375 C 12.363281 -17.085938 12.164062 -17.140625 11.90625 -17.140625 L 0.859375 -17.140625 L 0.859375 -16.734375 L 2.234375 -16.734375 L 2.234375 -0.40625 L 0.859375 -0.40625 L 0.859375 0 L 7.6875 0 L 7.6875 -0.40625 L 6.328125 -0.40625 L 6.328125 -8.78125 L 7.875 -8.78125 C 8.519531 -8.78125 9.015625 -8.566406 9.359375 -8.140625 C 9.703125 -7.722656 9.914062 -7.082031 10 -6.21875 C 10.019531 -5.914062 10.109375 -5.765625 10.265625 -5.765625 C 10.429688 -5.765625 10.515625 -5.914062 10.515625 -6.21875 L 10.515625 -11.75 C 10.515625 -12.0625 10.429688 -12.21875 10.265625 -12.21875 C 10.109375 -12.21875 10.019531 -12.0625 10 -11.75 C 9.914062 -10.90625 9.703125 -10.265625 9.359375 -9.828125 C 9.015625 -9.398438 8.519531 -9.1875 7.875 -9.1875 L 6.328125 -9.1875 L 6.328125 -16.734375 L 8.28125 -16.734375 C 8.9375 -16.734375 9.515625 -16.613281 10.015625 -16.375 C 10.515625 -16.132812 10.9375 -15.820312 11.28125 -15.4375 C 11.632812 -15.0625 11.898438 -14.632812 12.078125 -14.15625 C 12.253906 -13.6875 12.359375 -13.21875 12.390625 -12.75 C 12.390625 -12.53125 12.472656 -12.421875 12.640625 -12.421875 C 12.816406 -12.421875 12.90625 -12.53125 12.90625 -12.75 Z M 12.71875 -16.421875 "/></g></g></g><g fill="#695450" fill-opacity="1"><g transform="translate(71.228505, 203.751435)"><g><path d="M 1.046875 -0.40625 L 1.046875 0 L 13.5625 0 L 13.5625 -4.921875 C 13.5625 -5.191406 13.46875 -5.328125 13.28125 -5.328125 C 13.144531 -5.328125 13.0625 -5.234375 13.03125 -5.046875 C 12.945312 -4.410156 12.8125 -3.8125 12.625 -3.25 C 12.445312 -2.6875 12.210938 -2.195312 11.921875 -1.78125 C 11.628906 -1.375 11.273438 -1.050781 10.859375 -0.8125 C 10.441406 -0.570312 9.953125 -0.453125 9.390625 -0.453125 L 6.5 -0.453125 L 6.5 -16.734375 L 7.875 -16.734375 L 7.875 -17.140625 L 1.046875 -17.140625 L 1.046875 -16.734375 L 2.40625 -16.734375 L 2.40625 -0.40625 Z M 1.046875 -0.40625 "/></g></g></g><g fill="#695450" fill-opacity="1"><g transform="translate(85.721176, 203.751435)"><g><path d="M 0.890625 -8.578125 C 0.890625 -7.460938 1.0625 -6.375 1.40625 -5.3125 C 1.757812 -4.257812 2.273438 -3.3125 2.953125 -2.46875 C 3.640625 -1.632812 4.488281 -0.960938 5.5 -0.453125 C 6.519531 0.0546875 7.703125 0.3125 9.046875 0.3125 C 10.378906 0.3125 11.550781 0.0546875 12.5625 -0.453125 C 13.582031 -0.960938 14.4375 -1.632812 15.125 -2.46875 C 15.8125 -3.3125 16.328125 -4.257812 16.671875 -5.3125 C 17.015625 -6.375 17.1875 -7.460938 17.1875 -8.578125 C 17.1875 -9.679688 17.015625 -10.765625 16.671875 -11.828125 C 16.328125 -12.898438 15.8125 -13.847656 15.125 -14.671875 C 14.4375 -15.503906 13.582031 -16.171875 12.5625 -16.671875 C 11.550781 -17.179688 10.378906 -17.4375 9.046875 -17.4375 C 7.703125 -17.4375 6.519531 -17.179688 5.5 -16.671875 C 4.488281 -16.171875 3.640625 -15.503906 2.953125 -14.671875 C 2.273438 -13.847656 1.757812 -12.898438 1.40625 -11.828125 C 1.0625 -10.765625 0.890625 -9.679688 0.890625 -8.578125 Z M 9.046875 -16.984375 C 9.753906 -16.984375 10.320312 -16.847656 10.75 -16.578125 C 11.1875 -16.304688 11.519531 -15.882812 11.75 -15.3125 C 11.976562 -14.738281 12.128906 -14 12.203125 -13.09375 C 12.273438 -12.195312 12.3125 -11.117188 12.3125 -9.859375 L 12.3125 -7.3125 C 12.3125 -5.90625 12.273438 -4.738281 12.203125 -3.8125 C 12.128906 -2.894531 11.976562 -2.164062 11.75 -1.625 C 11.519531 -1.082031 11.1875 -0.703125 10.75 -0.484375 C 10.320312 -0.265625 9.753906 -0.15625 9.046875 -0.15625 C 8.328125 -0.15625 7.75 -0.265625 7.3125 -0.484375 C 6.882812 -0.703125 6.554688 -1.082031 6.328125 -1.625 C 6.109375 -2.164062 5.957031 -2.894531 5.875 -3.8125 C 5.800781 -4.738281 5.765625 -5.90625 5.765625 -7.3125 L 5.765625 -9.859375 C 5.765625 -11.117188 5.800781 -12.195312 5.875 -13.09375 C 5.957031 -14 6.109375 -14.738281 6.328125 -15.3125 C 6.554688 -15.882812 6.882812 -16.304688 7.3125 -16.578125 C 7.75 -16.847656 8.328125 -16.984375 9.046875 -16.984375 Z M 9.046875 -16.984375 "/></g></g></g><g fill="#695450" fill-opacity="1"><g transform="translate(103.640303, 203.751435)"><g><path d="M 13.9375 -2.8125 L 13.9375 -4.921875 C 13.9375 -5.867188 13.617188 -6.695312 12.984375 -7.40625 C 12.347656 -8.125 11.375 -8.554688 10.0625 -8.703125 C 10.507812 -8.796875 10.976562 -8.921875 11.46875 -9.078125 C 11.96875 -9.234375 12.414062 -9.460938 12.8125 -9.765625 C 13.207031 -10.078125 13.535156 -10.472656 13.796875 -10.953125 C 14.054688 -11.441406 14.1875 -12.039062 14.1875 -12.75 C 14.1875 -14.238281 13.695312 -15.34375 12.71875 -16.0625 C 11.738281 -16.78125 10.378906 -17.140625 8.640625 -17.140625 L 0.765625 -17.140625 L 0.765625 -16.734375 L 2.140625 -16.734375 L 2.140625 -0.40625 L 0.765625 -0.40625 L 0.765625 0 L 7.59375 0 L 7.59375 -0.40625 L 6.21875 -0.40625 L 6.21875 -8.578125 L 7.515625 -8.578125 C 7.867188 -8.578125 8.1875 -8.53125 8.46875 -8.4375 C 8.75 -8.34375 8.984375 -8.171875 9.171875 -7.921875 C 9.367188 -7.679688 9.519531 -7.335938 9.625 -6.890625 C 9.726562 -6.441406 9.78125 -5.863281 9.78125 -5.15625 L 9.78125 -3.453125 C 9.78125 -2.742188 9.859375 -2.144531 10.015625 -1.65625 C 10.179688 -1.164062 10.40625 -0.769531 10.6875 -0.46875 C 10.976562 -0.175781 11.328125 0.03125 11.734375 0.15625 C 12.140625 0.289062 12.585938 0.359375 13.078125 0.359375 C 13.785156 0.359375 14.46875 0.171875 15.125 -0.203125 C 15.789062 -0.578125 16.316406 -1.195312 16.703125 -2.0625 C 16.742188 -2.125 16.769531 -2.179688 16.78125 -2.234375 C 16.800781 -2.285156 16.8125 -2.335938 16.8125 -2.390625 C 16.8125 -2.492188 16.769531 -2.546875 16.6875 -2.546875 C 16.601562 -2.546875 16.5 -2.429688 16.375 -2.203125 C 16.09375 -1.734375 15.820312 -1.398438 15.5625 -1.203125 C 15.3125 -1.015625 15.082031 -0.921875 14.875 -0.921875 C 14.46875 -0.921875 14.207031 -1.097656 14.09375 -1.453125 C 13.988281 -1.816406 13.9375 -2.269531 13.9375 -2.8125 Z M 7.15625 -8.984375 L 6.21875 -8.984375 L 6.21875 -16.734375 L 7.15625 -16.734375 C 7.476562 -16.734375 7.820312 -16.691406 8.1875 -16.609375 C 8.550781 -16.535156 8.878906 -16.363281 9.171875 -16.09375 C 9.472656 -15.820312 9.71875 -15.425781 9.90625 -14.90625 C 10.101562 -14.382812 10.203125 -13.671875 10.203125 -12.765625 C 10.203125 -11.921875 10.101562 -11.25 9.90625 -10.75 C 9.71875 -10.25 9.472656 -9.867188 9.171875 -9.609375 C 8.878906 -9.347656 8.550781 -9.175781 8.1875 -9.09375 C 7.820312 -9.019531 7.476562 -8.984375 7.15625 -8.984375 Z M 7.15625 -8.984375 "/></g></g></g><g fill="#695450" fill-opacity="1"><g transform="translate(120.671091, 203.751435)"><g><path d="M 7.921875 -17.296875 L 2.796875 -1.734375 C 2.671875 -1.367188 2.453125 -1.054688 2.140625 -0.796875 C 1.828125 -0.535156 1.398438 -0.40625 0.859375 -0.40625 L 0.859375 0 L 4.703125 0 L 4.703125 -0.40625 C 4.390625 -0.40625 4.140625 -0.429688 3.953125 -0.484375 C 3.773438 -0.546875 3.632812 -0.625 3.53125 -0.71875 C 3.425781 -0.8125 3.359375 -0.910156 3.328125 -1.015625 C 3.296875 -1.128906 3.28125 -1.234375 3.28125 -1.328125 C 3.28125 -1.421875 3.28125 -1.503906 3.28125 -1.578125 C 3.289062 -1.660156 3.320312 -1.769531 3.375 -1.90625 L 4.4375 -5.3125 L 9.546875 -5.3125 L 11.171875 -0.40625 L 9.796875 -0.40625 L 9.796875 0 L 16.625 0 L 16.625 -0.40625 L 15.265625 -0.40625 L 9.671875 -17.296875 Z M 6.984375 -13.046875 L 9.390625 -5.71875 L 4.59375 -5.71875 Z M 6.984375 -13.046875 "/></g></g></g><g fill="#695450" fill-opacity="1"><g transform="translate(137.854161, 203.751435)"><g><path d="M 1.046875 -0.40625 L 1.046875 0 L 13.5625 0 L 13.5625 -4.921875 C 13.5625 -5.191406 13.46875 -5.328125 13.28125 -5.328125 C 13.144531 -5.328125 13.0625 -5.234375 13.03125 -5.046875 C 12.945312 -4.410156 12.8125 -3.8125 12.625 -3.25 C 12.445312 -2.6875 12.210938 -2.195312 11.921875 -1.78125 C 11.628906 -1.375 11.273438 -1.050781 10.859375 -0.8125 C 10.441406 -0.570312 9.953125 -0.453125 9.390625 -0.453125 L 6.5 -0.453125 L 6.5 -16.734375 L 7.875 -16.734375 L 7.875 -17.140625 L 1.046875 -17.140625 L 1.046875 -16.734375 L 2.40625 -16.734375 L 2.40625 -0.40625 Z M 1.046875 -0.40625 "/></g></g></g><g fill="#695450" fill-opacity="1"><g transform="translate(152.346832, 203.751435)"><g/></g></g><g fill="#695450" fill-opacity="1"><g transform="translate(159.453576, 203.751435)"><g><path d="M 12.71875 -16.421875 C 12.707031 -16.691406 12.632812 -16.878906 12.5 -16.984375 C 12.363281 -17.085938 12.164062 -17.140625 11.90625 -17.140625 L 0.859375 -17.140625 L 0.859375 -16.734375 L 2.234375 -16.734375 L 2.234375 -0.40625 L 0.859375 -0.40625 L 0.859375 0 L 7.6875 0 L 7.6875 -0.40625 L 6.328125 -0.40625 L 6.328125 -8.78125 L 7.875 -8.78125 C 8.519531 -8.78125 9.015625 -8.566406 9.359375 -8.140625 C 9.703125 -7.722656 9.914062 -7.082031 10 -6.21875 C 10.019531 -5.914062 10.109375 -5.765625 10.265625 -5.765625 C 10.429688 -5.765625 10.515625 -5.914062 10.515625 -6.21875 L 10.515625 -11.75 C 10.515625 -12.0625 10.429688 -12.21875 10.265625 -12.21875 C 10.109375 -12.21875 10.019531 -12.0625 10 -11.75 C 9.914062 -10.90625 9.703125 -10.265625 9.359375 -9.828125 C 9.015625 -9.398438 8.519531 -9.1875 7.875 -9.1875 L 6.328125 -9.1875 L 6.328125 -16.734375 L 8.28125 -16.734375 C 8.9375 -16.734375 9.515625 -16.613281 10.015625 -16.375 C 10.515625 -16.132812 10.9375 -15.820312 11.28125 -15.4375 C 11.632812 -15.0625 11.898438 -14.632812 12.078125 -14.15625 C 12.253906 -13.6875 12.359375 -13.21875 12.390625 -12.75 C 12.390625 -12.53125 12.472656 -12.421875 12.640625 -12.421875 C 12.816406 -12.421875 12.90625 -12.53125 12.90625 -12.75 Z M 12.71875 -16.421875 "/></g></g></g><g fill="#695450" fill-opacity="1"><g transform="translate(173.69243, 203.751435)"><g><path d="M 1.046875 -0.40625 L 1.046875 0 L 13.5625 0 L 13.5625 -4.921875 C 13.5625 -5.191406 13.46875 -5.328125 13.28125 -5.328125 C 13.144531 -5.328125 13.0625 -5.234375 13.03125 -5.046875 C 12.945312 -4.410156 12.8125 -3.8125 12.625 -3.25 C 12.445312 -2.6875 12.210938 -2.195312 11.921875 -1.78125 C 11.628906 -1.375 11.273438 -1.050781 10.859375 -0.8125 C 10.441406 -0.570312 9.953125 -0.453125 9.390625 -0.453125 L 6.5 -0.453125 L 6.5 -16.734375 L 7.875 -16.734375 L 7.875 -17.140625 L 1.046875 -17.140625 L 1.046875 -16.734375 L 2.40625 -16.734375 L 2.40625 -0.40625 Z M 1.046875 -0.40625 "/></g></g></g><g fill="#695450" fill-opacity="1"><g transform="translate(188.185101, 203.751435)"><g><path d="M 0.890625 -8.578125 C 0.890625 -7.460938 1.0625 -6.375 1.40625 -5.3125 C 1.757812 -4.257812 2.273438 -3.3125 2.953125 -2.46875 C 3.640625 -1.632812 4.488281 -0.960938 5.5 -0.453125 C 6.519531 0.0546875 7.703125 0.3125 9.046875 0.3125 C 10.378906 0.3125 11.550781 0.0546875 12.5625 -0.453125 C 13.582031 -0.960938 14.4375 -1.632812 15.125 -2.46875 C 15.8125 -3.3125 16.328125 -4.257812 16.671875 -5.3125 C 17.015625 -6.375 17.1875 -7.460938 17.1875 -8.578125 C 17.1875 -9.679688 17.015625 -10.765625 16.671875 -11.828125 C 16.328125 -12.898438 15.8125 -13.847656 15.125 -14.671875 C 14.4375 -15.503906 13.582031 -16.171875 12.5625 -16.671875 C 11.550781 -17.179688 10.378906 -17.4375 9.046875 -17.4375 C 7.703125 -17.4375 6.519531 -17.179688 5.5 -16.671875 C 4.488281 -16.171875 3.640625 -15.503906 2.953125 -14.671875 C 2.273438 -13.847656 1.757812 -12.898438 1.40625 -11.828125 C 1.0625 -10.765625 0.890625 -9.679688 0.890625 -8.578125 Z M 9.046875 -16.984375 C 9.753906 -16.984375 10.320312 -16.847656 10.75 -16.578125 C 11.1875 -16.304688 11.519531 -15.882812 11.75 -15.3125 C 11.976562 -14.738281 12.128906 -14 12.203125 -13.09375 C 12.273438 -12.195312 12.3125 -11.117188 12.3125 -9.859375 L 12.3125 -7.3125 C 12.3125 -5.90625 12.273438 -4.738281 12.203125 -3.8125 C 12.128906 -2.894531 11.976562 -2.164062 11.75 -1.625 C 11.519531 -1.082031 11.1875 -0.703125 10.75 -0.484375 C 10.320312 -0.265625 9.753906 -0.15625 9.046875 -0.15625 C 8.328125 -0.15625 7.75 -0.265625 7.3125 -0.484375 C 6.882812 -0.703125 6.554688 -1.082031 6.328125 -1.625 C 6.109375 -2.164062 5.957031 -2.894531 5.875 -3.8125 C 5.800781 -4.738281 5.765625 -5.90625 5.765625 -7.3125 L 5.765625 -9.859375 C 5.765625 -11.117188 5.800781 -12.195312 5.875 -13.09375 C 5.957031 -14 6.109375 -14.738281 6.328125 -15.3125 C 6.554688 -15.882812 6.882812 -16.304688 7.3125 -16.578125 C 7.75 -16.847656 8.328125 -16.984375 9.046875 -16.984375 Z M 9.046875 -16.984375 "/></g></g></g><g fill="#695450" fill-opacity="1"><g transform="translate(206.104228, 203.751435)"><g><path d="M 13.9375 -2.8125 L 13.9375 -4.921875 C 13.9375 -5.867188 13.617188 -6.695312 12.984375 -7.40625 C 12.347656 -8.125 11.375 -8.554688 10.0625 -8.703125 C 10.507812 -8.796875 10.976562 -8.921875 11.46875 -9.078125 C 11.96875 -9.234375 12.414062 -9.460938 12.8125 -9.765625 C 13.207031 -10.078125 13.535156 -10.472656 13.796875 -10.953125 C 14.054688 -11.441406 14.1875 -12.039062 14.1875 -12.75 C 14.1875 -14.238281 13.695312 -15.34375 12.71875 -16.0625 C 11.738281 -16.78125 10.378906 -17.140625 8.640625 -17.140625 L 0.765625 -17.140625 L 0.765625 -16.734375 L 2.140625 -16.734375 L 2.140625 -0.40625 L 0.765625 -0.40625 L 0.765625 0 L 7.59375 0 L 7.59375 -0.40625 L 6.21875 -0.40625 L 6.21875 -8.578125 L 7.515625 -8.578125 C 7.867188 -8.578125 8.1875 -8.53125 8.46875 -8.4375 C 8.75 -8.34375 8.984375 -8.171875 9.171875 -7.921875 C 9.367188 -7.679688 9.519531 -7.335938 9.625 -6.890625 C 9.726562 -6.441406 9.78125 -5.863281 9.78125 -5.15625 L 9.78125 -3.453125 C 9.78125 -2.742188 9.859375 -2.144531 10.015625 -1.65625 C 10.179688 -1.164062 10.40625 -0.769531 10.6875 -0.46875 C 10.976562 -0.175781 11.328125 0.03125 11.734375 0.15625 C 12.140625 0.289062 12.585938 0.359375 13.078125 0.359375 C 13.785156 0.359375 14.46875 0.171875 15.125 -0.203125 C 15.789062 -0.578125 16.316406 -1.195312 16.703125 -2.0625 C 16.742188 -2.125 16.769531 -2.179688 16.78125 -2.234375 C 16.800781 -2.285156 16.8125 -2.335938 16.8125 -2.390625 C 16.8125 -2.492188 16.769531 -2.546875 16.6875 -2.546875 C 16.601562 -2.546875 16.5 -2.429688 16.375 -2.203125 C 16.09375 -1.734375 15.820312 -1.398438 15.5625 -1.203125 C 15.3125 -1.015625 15.082031 -0.921875 14.875 -0.921875 C 14.46875 -0.921875 14.207031 -1.097656 14.09375 -1.453125 C 13.988281 -1.816406 13.9375 -2.269531 13.9375 -2.8125 Z M 7.15625 -8.984375 L 6.21875 -8.984375 L 6.21875 -16.734375 L 7.15625 -16.734375 C 7.476562 -16.734375 7.820312 -16.691406 8.1875 -16.609375 C 8.550781 -16.535156 8.878906 -16.363281 9.171875 -16.09375 C 9.472656 -15.820312 9.71875 -15.425781 9.90625 -14.90625 C 10.101562 -14.382812 10.203125 -13.671875 10.203125 -12.765625 C 10.203125 -11.921875 10.101562 -11.25 9.90625 -10.75 C 9.71875 -10.25 9.472656 -9.867188 9.171875 -9.609375 C 8.878906 -9.347656 8.550781 -9.175781 8.1875 -9.09375 C 7.820312 -9.019531 7.476562 -8.984375 7.15625 -8.984375 Z M 7.15625 -8.984375 "/></g></g></g><g fill="#695450" fill-opacity="1"><g transform="translate(223.135016, 203.751435)"><g><path d="M 7.890625 -16.734375 L 7.890625 -17.140625 L 1.0625 -17.140625 L 1.0625 -16.734375 L 2.4375 -16.734375 L 2.4375 -0.40625 L 1.0625 -0.40625 L 1.0625 0 L 7.890625 0 L 7.890625 -0.40625 L 6.53125 -0.40625 L 6.53125 -16.734375 Z M 7.890625 -16.734375 "/></g></g></g><g fill="#695450" fill-opacity="1"><g transform="translate(232.069199, 203.751435)"><g><path d="M 11.53125 -17.3125 L 10.875 -16.328125 C 10.507812 -16.566406 10.03125 -16.8125 9.4375 -17.0625 C 8.851562 -17.3125 8.101562 -17.4375 7.1875 -17.4375 C 6.257812 -17.4375 5.441406 -17.269531 4.734375 -16.9375 C 4.035156 -16.613281 3.445312 -16.1875 2.96875 -15.65625 C 2.5 -15.132812 2.140625 -14.535156 1.890625 -13.859375 C 1.648438 -13.179688 1.53125 -12.503906 1.53125 -11.828125 C 1.53125 -10.628906 1.816406 -9.625 2.390625 -8.8125 C 2.960938 -8 3.898438 -7.40625 5.203125 -7.03125 C 5.503906 -6.945312 5.832031 -6.863281 6.1875 -6.78125 C 6.550781 -6.695312 6.90625 -6.613281 7.25 -6.53125 C 7.59375 -6.457031 7.910156 -6.382812 8.203125 -6.3125 C 8.492188 -6.25 8.710938 -6.191406 8.859375 -6.140625 C 9.660156 -5.921875 10.195312 -5.59375 10.46875 -5.15625 C 10.75 -4.71875 10.890625 -4.140625 10.890625 -3.421875 C 10.890625 -3.085938 10.816406 -2.726562 10.671875 -2.34375 C 10.535156 -1.96875 10.316406 -1.617188 10.015625 -1.296875 C 9.722656 -0.972656 9.34375 -0.703125 8.875 -0.484375 C 8.40625 -0.265625 7.859375 -0.15625 7.234375 -0.15625 C 6.390625 -0.15625 5.664062 -0.304688 5.0625 -0.609375 C 4.46875 -0.910156 3.957031 -1.304688 3.53125 -1.796875 C 3.101562 -2.296875 2.753906 -2.847656 2.484375 -3.453125 C 2.210938 -4.066406 1.992188 -4.675781 1.828125 -5.28125 C 1.765625 -5.519531 1.6875 -5.640625 1.59375 -5.640625 C 1.550781 -5.640625 1.515625 -5.613281 1.484375 -5.5625 C 1.460938 -5.507812 1.453125 -5.398438 1.453125 -5.234375 L 1.453125 -0.25 C 1.453125 -0.15625 1.460938 -0.0664062 1.484375 0.015625 C 1.515625 0.109375 1.570312 0.15625 1.65625 0.15625 C 1.769531 0.15625 1.90625 0.0351562 2.0625 -0.203125 L 2.84375 -1.390625 C 3.007812 -1.222656 3.210938 -1.039062 3.453125 -0.84375 C 3.703125 -0.65625 4 -0.472656 4.34375 -0.296875 C 4.695312 -0.128906 5.101562 0.0078125 5.5625 0.125 C 6.03125 0.25 6.585938 0.3125 7.234375 0.3125 C 8.234375 0.3125 9.101562 0.144531 9.84375 -0.1875 C 10.59375 -0.519531 11.210938 -0.957031 11.703125 -1.5 C 12.191406 -2.039062 12.554688 -2.65625 12.796875 -3.34375 C 13.046875 -4.039062 13.171875 -4.753906 13.171875 -5.484375 C 13.171875 -7.046875 12.785156 -8.300781 12.015625 -9.25 C 11.253906 -10.207031 10.117188 -10.832031 8.609375 -11.125 C 8.234375 -11.1875 7.773438 -11.28125 7.234375 -11.40625 C 6.691406 -11.539062 6.21875 -11.675781 5.8125 -11.8125 C 5.289062 -12 4.914062 -12.296875 4.6875 -12.703125 C 4.457031 -13.117188 4.34375 -13.640625 4.34375 -14.265625 C 4.34375 -14.609375 4.398438 -14.941406 4.515625 -15.265625 C 4.640625 -15.597656 4.816406 -15.890625 5.046875 -16.140625 C 5.285156 -16.398438 5.582031 -16.601562 5.9375 -16.75 C 6.289062 -16.90625 6.707031 -16.984375 7.1875 -16.984375 C 7.570312 -16.984375 7.972656 -16.925781 8.390625 -16.8125 C 8.804688 -16.707031 9.207031 -16.507812 9.59375 -16.21875 C 9.988281 -15.9375 10.351562 -15.53125 10.6875 -15 C 11.03125 -14.476562 11.3125 -13.8125 11.53125 -13 C 11.582031 -12.757812 11.65625 -12.640625 11.75 -12.640625 C 11.84375 -12.640625 11.890625 -12.675781 11.890625 -12.75 C 11.898438 -12.832031 11.90625 -12.925781 11.90625 -13.03125 L 11.90625 -17.296875 C 11.90625 -17.460938 11.863281 -17.546875 11.78125 -17.546875 C 11.695312 -17.546875 11.613281 -17.46875 11.53125 -17.3125 Z M 11.53125 -17.3125 "/></g></g></g><g fill="#695450" fill-opacity="1"><g transform="translate(246.206532, 203.751435)"><g><path d="M 7.796875 -17.140625 L 0.96875 -17.140625 L 0.96875 -16.734375 L 2.34375 -16.734375 L 2.34375 -0.40625 L 0.96875 -0.40625 L 0.96875 0 L 7.796875 0 L 7.796875 -0.40625 L 6.421875 -0.40625 L 6.421875 -8.859375 L 11.21875 -8.859375 L 11.21875 -0.40625 L 9.859375 -0.40625 L 9.859375 0 L 16.6875 0 L 16.6875 -0.40625 L 15.3125 -0.40625 L 15.3125 -16.765625 L 16.6875 -16.765625 L 16.6875 -17.171875 L 9.859375 -17.171875 L 9.859375 -16.765625 L 11.21875 -16.765625 L 11.21875 -9.421875 L 6.421875 -9.421875 L 6.421875 -16.734375 L 7.796875 -16.734375 Z M 7.796875 -17.140625 "/></g></g></g><g fill="#695450" fill-opacity="1"><g transform="translate(263.668799, 203.751435)"><g/></g></g><g fill="#695450" fill-opacity="1"><g transform="translate(270.775543, 203.751435)"><g><path d="M 12.921875 -16.015625 C 12.535156 -16.410156 12.03125 -16.742188 11.40625 -17.015625 C 10.789062 -17.296875 10.003906 -17.4375 9.046875 -17.4375 C 7.617188 -17.4375 6.375 -17.179688 5.3125 -16.671875 C 4.257812 -16.171875 3.378906 -15.503906 2.671875 -14.671875 C 1.972656 -13.847656 1.445312 -12.898438 1.09375 -11.828125 C 0.738281 -10.765625 0.5625 -9.675781 0.5625 -8.5625 C 0.5625 -7.4375 0.738281 -6.34375 1.09375 -5.28125 C 1.445312 -4.226562 1.972656 -3.285156 2.671875 -2.453125 C 3.378906 -1.628906 4.257812 -0.960938 5.3125 -0.453125 C 6.375 0.0546875 7.609375 0.3125 9.015625 0.3125 C 9.660156 0.3125 10.234375 0.238281 10.734375 0.09375 C 11.234375 -0.0507812 11.660156 -0.222656 12.015625 -0.421875 C 12.378906 -0.628906 12.679688 -0.84375 12.921875 -1.0625 C 13.160156 -1.28125 13.335938 -1.46875 13.453125 -1.625 L 14.46875 -0.171875 C 14.59375 -0.00390625 14.695312 0.078125 14.78125 0.078125 C 14.863281 0.078125 14.90625 -0.015625 14.90625 -0.203125 L 14.90625 -6 C 14.90625 -6.21875 14.835938 -6.328125 14.703125 -6.328125 C 14.585938 -6.328125 14.503906 -6.21875 14.453125 -6 C 14.398438 -5.726562 14.320312 -5.390625 14.21875 -4.984375 C 14.113281 -4.585938 13.976562 -4.171875 13.8125 -3.734375 C 13.644531 -3.304688 13.425781 -2.875 13.15625 -2.4375 C 12.894531 -2.007812 12.570312 -1.625 12.1875 -1.28125 C 11.800781 -0.945312 11.347656 -0.675781 10.828125 -0.46875 C 10.316406 -0.257812 9.710938 -0.15625 9.015625 -0.15625 C 8.390625 -0.15625 7.851562 -0.25 7.40625 -0.4375 C 6.957031 -0.625 6.582031 -0.972656 6.28125 -1.484375 C 5.988281 -2.003906 5.773438 -2.726562 5.640625 -3.65625 C 5.503906 -4.582031 5.4375 -5.789062 5.4375 -7.28125 L 5.4375 -9.828125 C 5.4375 -11.335938 5.484375 -12.5625 5.578125 -13.5 C 5.679688 -14.4375 5.867188 -15.160156 6.140625 -15.671875 C 6.410156 -16.191406 6.789062 -16.539062 7.28125 -16.71875 C 7.78125 -16.894531 8.425781 -16.984375 9.21875 -16.984375 C 9.84375 -16.984375 10.398438 -16.878906 10.890625 -16.671875 C 11.378906 -16.460938 11.820312 -16.15625 12.21875 -15.75 C 12.625 -15.34375 12.976562 -14.847656 13.28125 -14.265625 C 13.582031 -13.691406 13.863281 -13.039062 14.125 -12.3125 C 14.164062 -12.144531 14.253906 -12.0625 14.390625 -12.0625 C 14.515625 -12.0625 14.578125 -12.144531 14.578125 -12.3125 L 14.578125 -16.8125 C 14.578125 -17.082031 14.472656 -17.21875 14.265625 -17.21875 C 14.128906 -17.21875 14.003906 -17.140625 13.890625 -16.984375 Z M 12.921875 -16.015625 "/></g></g></g><g fill="#695450" fill-opacity="1"><g transform="translate(286.613427, 203.751435)"><g><path d="M 7.921875 -17.296875 L 2.796875 -1.734375 C 2.671875 -1.367188 2.453125 -1.054688 2.140625 -0.796875 C 1.828125 -0.535156 1.398438 -0.40625 0.859375 -0.40625 L 0.859375 0 L 4.703125 0 L 4.703125 -0.40625 C 4.390625 -0.40625 4.140625 -0.429688 3.953125 -0.484375 C 3.773438 -0.546875 3.632812 -0.625 3.53125 -0.71875 C 3.425781 -0.8125 3.359375 -0.910156 3.328125 -1.015625 C 3.296875 -1.128906 3.28125 -1.234375 3.28125 -1.328125 C 3.28125 -1.421875 3.28125 -1.503906 3.28125 -1.578125 C 3.289062 -1.660156 3.320312 -1.769531 3.375 -1.90625 L 4.4375 -5.3125 L 9.546875 -5.3125 L 11.171875 -0.40625 L 9.796875 -0.40625 L 9.796875 0 L 16.625 0 L 16.625 -0.40625 L 15.265625 -0.40625 L 9.671875 -17.296875 Z M 6.984375 -13.046875 L 9.390625 -5.71875 L 4.59375 -5.71875 Z M 6.984375 -13.046875 "/></g></g></g><g fill="#695450" fill-opacity="1"><g transform="translate(303.796497, 203.751435)"><g><path d="M 12.71875 -16.421875 C 12.707031 -16.691406 12.632812 -16.878906 12.5 -16.984375 C 12.363281 -17.085938 12.164062 -17.140625 11.90625 -17.140625 L 0.859375 -17.140625 L 0.859375 -16.734375 L 2.234375 -16.734375 L 2.234375 -0.40625 L 0.859375 -0.40625 L 0.859375 0 L 7.6875 0 L 7.6875 -0.40625 L 6.328125 -0.40625 L 6.328125 -8.78125 L 7.875 -8.78125 C 8.519531 -8.78125 9.015625 -8.566406 9.359375 -8.140625 C 9.703125 -7.722656 9.914062 -7.082031 10 -6.21875 C 10.019531 -5.914062 10.109375 -5.765625 10.265625 -5.765625 C 10.429688 -5.765625 10.515625 -5.914062 10.515625 -6.21875 L 10.515625 -11.75 C 10.515625 -12.0625 10.429688 -12.21875 10.265625 -12.21875 C 10.109375 -12.21875 10.019531 -12.0625 10 -11.75 C 9.914062 -10.90625 9.703125 -10.265625 9.359375 -9.828125 C 9.015625 -9.398438 8.519531 -9.1875 7.875 -9.1875 L 6.328125 -9.1875 L 6.328125 -16.734375 L 8.28125 -16.734375 C 8.9375 -16.734375 9.515625 -16.613281 10.015625 -16.375 C 10.515625 -16.132812 10.9375 -15.820312 11.28125 -15.4375 C 11.632812 -15.0625 11.898438 -14.632812 12.078125 -14.15625 C 12.253906 -13.6875 12.359375 -13.21875 12.390625 -12.75 C 12.390625 -12.53125 12.472656 -12.421875 12.640625 -12.421875 C 12.816406 -12.421875 12.90625 -12.53125 12.90625 -12.75 Z M 12.71875 -16.421875 "/></g></g></g><g fill="#695450" fill-opacity="1"><g transform="translate(318.035337, 203.751435)"><g><path d="M 8.375 -21.53125 L 6.46875 -18 L 6.859375 -17.796875 L 10.5625 -21.53125 Z M 10.15625 -5.765625 C 10.320312 -5.765625 10.40625 -5.914062 10.40625 -6.21875 L 10.40625 -11.75 C 10.40625 -12.0625 10.320312 -12.21875 10.15625 -12.21875 C 10 -12.21875 9.914062 -12.0625 9.90625 -11.75 C 9.820312 -10.90625 9.601562 -10.265625 9.25 -9.828125 C 8.90625 -9.398438 8.410156 -9.1875 7.765625 -9.1875 L 6.21875 -9.1875 L 6.21875 -16.734375 L 8.171875 -16.734375 C 8.835938 -16.734375 9.421875 -16.613281 9.921875 -16.375 C 10.421875 -16.132812 10.84375 -15.820312 11.1875 -15.4375 C 11.53125 -15.0625 11.789062 -14.632812 11.96875 -14.15625 C 12.144531 -13.6875 12.253906 -13.21875 12.296875 -12.75 C 12.296875 -12.53125 12.378906 -12.421875 12.546875 -12.421875 C 12.710938 -12.421875 12.796875 -12.53125 12.796875 -12.75 L 12.59375 -16.421875 C 12.570312 -16.691406 12.492188 -16.878906 12.359375 -16.984375 C 12.222656 -17.085938 12.03125 -17.140625 11.78125 -17.140625 L 0.765625 -17.140625 L 0.765625 -16.734375 L 2.140625 -16.734375 L 2.140625 -0.40625 L 0.765625 -0.40625 L 0.765625 0 L 12.828125 0 C 13.097656 0 13.28125 -0.0664062 13.375 -0.203125 C 13.46875 -0.335938 13.515625 -0.523438 13.515625 -0.765625 L 13.515625 -4.921875 C 13.515625 -5.191406 13.425781 -5.328125 13.25 -5.328125 C 13.082031 -5.328125 12.972656 -5.191406 12.921875 -4.921875 C 12.785156 -4.296875 12.640625 -3.707031 12.484375 -3.15625 C 12.335938 -2.613281 12.109375 -2.140625 11.796875 -1.734375 C 11.492188 -1.328125 11.09375 -1.003906 10.59375 -0.765625 C 10.101562 -0.523438 9.453125 -0.40625 8.640625 -0.40625 L 6.21875 -0.40625 L 6.21875 -8.78125 L 7.765625 -8.78125 C 8.410156 -8.78125 8.90625 -8.566406 9.25 -8.140625 C 9.601562 -7.722656 9.820312 -7.082031 9.90625 -6.21875 C 9.914062 -5.914062 10 -5.765625 10.15625 -5.765625 Z M 10.15625 -5.765625 "/></g></g></g><g fill="#695450" fill-opacity="1"><g transform="translate(125.782027, 227.083886)"><g><path d="M 1.109375 -8.40625 L 4.75 -8.40625 C 5.625 -8.40625 6.3125 -8.21875 6.8125 -7.84375 C 7.320312 -7.46875 7.578125 -6.953125 7.578125 -6.296875 C 7.578125 -5.828125 7.441406 -5.425781 7.171875 -5.09375 C 6.910156 -4.757812 6.550781 -4.535156 6.09375 -4.421875 C 6.65625 -4.328125 7.09375 -4.09375 7.40625 -3.71875 C 7.726562 -3.34375 7.890625 -2.867188 7.890625 -2.296875 C 7.890625 -1.578125 7.617188 -1.015625 7.078125 -0.609375 C 6.535156 -0.203125 5.789062 0 4.84375 0 L 1.109375 0 Z M 2.515625 -7.140625 L 2.515625 -4.921875 L 4.6875 -4.921875 C 5.132812 -4.921875 5.484375 -5.019531 5.734375 -5.21875 C 5.992188 -5.414062 6.125 -5.691406 6.125 -6.046875 C 6.125 -6.398438 5.992188 -6.671875 5.734375 -6.859375 C 5.484375 -7.046875 5.132812 -7.140625 4.6875 -7.140625 Z M 2.515625 -3.671875 L 2.515625 -1.265625 L 4.6875 -1.265625 C 5.238281 -1.265625 5.664062 -1.367188 5.96875 -1.578125 C 6.28125 -1.785156 6.4375 -2.085938 6.4375 -2.484375 C 6.4375 -2.847656 6.28125 -3.132812 5.96875 -3.34375 C 5.664062 -3.5625 5.238281 -3.671875 4.6875 -3.671875 Z M 2.515625 -3.671875 "/></g></g></g><g fill="#695450" fill-opacity="1"><g transform="translate(136.654042, 227.083886)"><g><path d="M 2.515625 -1.28125 L 6.15625 -1.28125 L 6.15625 0 L 1.109375 0 L 1.109375 -8.40625 L 2.515625 -8.40625 Z M 2.515625 -1.28125 "/></g></g></g><g fill="#695450" fill-opacity="1"><g transform="translate(145.462057, 227.083886)"><g><path d="M 1.6875 -7.21875 C 2.539062 -8.03125 3.597656 -8.4375 4.859375 -8.4375 C 6.117188 -8.4375 7.175781 -8.03125 8.03125 -7.21875 C 8.882812 -6.40625 9.3125 -5.398438 9.3125 -4.203125 C 9.3125 -3.003906 8.882812 -1.992188 8.03125 -1.171875 C 7.175781 -0.347656 6.117188 0.0625 4.859375 0.0625 C 3.597656 0.0625 2.539062 -0.347656 1.6875 -1.171875 C 0.832031 -1.992188 0.40625 -3.003906 0.40625 -4.203125 C 0.40625 -5.398438 0.832031 -6.40625 1.6875 -7.21875 Z M 4.875 -7.15625 C 4.039062 -7.15625 3.328125 -6.867188 2.734375 -6.296875 C 2.140625 -5.734375 1.84375 -5.035156 1.84375 -4.203125 C 1.84375 -3.367188 2.140625 -2.660156 2.734375 -2.078125 C 3.335938 -1.503906 4.050781 -1.21875 4.875 -1.21875 C 5.695312 -1.21875 6.398438 -1.503906 6.984375 -2.078125 C 7.566406 -2.660156 7.859375 -3.367188 7.859375 -4.203125 C 7.859375 -5.035156 7.566406 -5.734375 6.984375 -6.296875 C 6.398438 -6.867188 5.695312 -7.15625 4.875 -7.15625 Z M 4.875 -7.15625 "/></g></g></g><g fill="#695450" fill-opacity="1"><g transform="translate(157.582072, 227.083886)"><g><path d="M 1.6875 -7.21875 C 2.539062 -8.03125 3.597656 -8.4375 4.859375 -8.4375 C 6.117188 -8.4375 7.175781 -8.03125 8.03125 -7.21875 C 8.882812 -6.40625 9.3125 -5.398438 9.3125 -4.203125 C 9.3125 -3.003906 8.882812 -1.992188 8.03125 -1.171875 C 7.175781 -0.347656 6.117188 0.0625 4.859375 0.0625 C 3.597656 0.0625 2.539062 -0.347656 1.6875 -1.171875 C 0.832031 -1.992188 0.40625 -3.003906 0.40625 -4.203125 C 0.40625 -5.398438 0.832031 -6.40625 1.6875 -7.21875 Z M 4.875 -7.15625 C 4.039062 -7.15625 3.328125 -6.867188 2.734375 -6.296875 C 2.140625 -5.734375 1.84375 -5.035156 1.84375 -4.203125 C 1.84375 -3.367188 2.140625 -2.660156 2.734375 -2.078125 C 3.335938 -1.503906 4.050781 -1.21875 4.875 -1.21875 C 5.695312 -1.21875 6.398438 -1.503906 6.984375 -2.078125 C 7.566406 -2.660156 7.859375 -3.367188 7.859375 -4.203125 C 7.859375 -5.035156 7.566406 -5.734375 6.984375 -6.296875 C 6.398438 -6.867188 5.695312 -7.15625 4.875 -7.15625 Z M 4.875 -7.15625 "/></g></g></g><g fill="#695450" fill-opacity="1"><g transform="translate(169.702089, 227.083886)"><g><path d="M 9.984375 0 L 8.671875 0 L 8.65625 -6.28125 L 6.015625 -0.875 L 5.09375 -0.875 L 2.4375 -6.28125 L 2.4375 0 L 1.109375 0 L 1.109375 -8.40625 L 2.78125 -8.40625 L 5.5625 -2.8125 L 8.3125 -8.40625 L 9.984375 -8.40625 Z M 9.984375 0 "/></g></g></g><g fill="#695450" fill-opacity="1"><g transform="translate(183.202113, 227.083886)"><g/></g></g><g fill="#695450" fill-opacity="1"><g transform="translate(188.698115, 227.083886)"><g><path d="M 7.15625 0.234375 L 5.859375 -1.0625 C 5.078125 -0.3125 4.234375 0.0625 3.328125 0.0625 C 2.578125 0.0625 1.945312 -0.160156 1.4375 -0.609375 C 0.9375 -1.054688 0.6875 -1.617188 0.6875 -2.296875 C 0.6875 -2.835938 0.84375 -3.28125 1.15625 -3.625 C 1.476562 -3.976562 1.925781 -4.3125 2.5 -4.625 C 1.957031 -5.34375 1.6875 -5.988281 1.6875 -6.5625 C 1.6875 -7.125 1.890625 -7.578125 2.296875 -7.921875 C 2.703125 -8.273438 3.226562 -8.453125 3.875 -8.453125 C 4.5 -8.453125 5.007812 -8.285156 5.40625 -7.953125 C 5.800781 -7.628906 6 -7.210938 6 -6.703125 C 6 -6.421875 5.941406 -6.164062 5.828125 -5.9375 C 5.722656 -5.707031 5.5625 -5.5 5.34375 -5.3125 C 5.132812 -5.125 4.925781 -4.96875 4.71875 -4.84375 C 4.519531 -4.71875 4.265625 -4.570312 3.953125 -4.40625 C 4.359375 -3.945312 4.945312 -3.335938 5.71875 -2.578125 C 6.007812 -3.015625 6.265625 -3.519531 6.484375 -4.09375 L 7.375 -3.421875 C 7.113281 -2.785156 6.820312 -2.253906 6.5 -1.828125 L 7.875 -0.484375 Z M 2.78125 -6.578125 C 2.78125 -6.148438 2.988281 -5.65625 3.40625 -5.09375 C 3.894531 -5.34375 4.265625 -5.585938 4.515625 -5.828125 C 4.773438 -6.066406 4.90625 -6.351562 4.90625 -6.6875 C 4.90625 -6.96875 4.8125 -7.1875 4.625 -7.34375 C 4.445312 -7.507812 4.203125 -7.59375 3.890625 -7.59375 C 3.554688 -7.59375 3.285156 -7.492188 3.078125 -7.296875 C 2.878906 -7.109375 2.78125 -6.867188 2.78125 -6.578125 Z M 3.375 -0.984375 C 3.96875 -0.984375 4.539062 -1.253906 5.09375 -1.796875 C 4.144531 -2.753906 3.46875 -3.460938 3.0625 -3.921875 C 2.664062 -3.703125 2.359375 -3.472656 2.140625 -3.234375 C 1.929688 -2.992188 1.828125 -2.71875 1.828125 -2.40625 C 1.828125 -1.988281 1.972656 -1.644531 2.265625 -1.375 C 2.566406 -1.113281 2.9375 -0.984375 3.375 -0.984375 Z M 3.375 -0.984375 "/></g></g></g><g fill="#695450" fill-opacity="1"><g transform="translate(199.054125, 227.083886)"><g/></g></g><g fill="#695450" fill-opacity="1"><g transform="translate(204.550126, 227.083886)"><g><path d="M 1.109375 -8.40625 L 4.75 -8.40625 C 5.625 -8.40625 6.3125 -8.21875 6.8125 -7.84375 C 7.320312 -7.46875 7.578125 -6.953125 7.578125 -6.296875 C 7.578125 -5.828125 7.441406 -5.425781 7.171875 -5.09375 C 6.910156 -4.757812 6.550781 -4.535156 6.09375 -4.421875 C 6.65625 -4.328125 7.09375 -4.09375 7.40625 -3.71875 C 7.726562 -3.34375 7.890625 -2.867188 7.890625 -2.296875 C 7.890625 -1.578125 7.617188 -1.015625 7.078125 -0.609375 C 6.535156 -0.203125 5.789062 0 4.84375 0 L 1.109375 0 Z M 2.515625 -7.140625 L 2.515625 -4.921875 L 4.6875 -4.921875 C 5.132812 -4.921875 5.484375 -5.019531 5.734375 -5.21875 C 5.992188 -5.414062 6.125 -5.691406 6.125 -6.046875 C 6.125 -6.398438 5.992188 -6.671875 5.734375 -6.859375 C 5.484375 -7.046875 5.132812 -7.140625 4.6875 -7.140625 Z M 2.515625 -3.671875 L 2.515625 -1.265625 L 4.6875 -1.265625 C 5.238281 -1.265625 5.664062 -1.367188 5.96875 -1.578125 C 6.28125 -1.785156 6.4375 -2.085938 6.4375 -2.484375 C 6.4375 -2.847656 6.28125 -3.132812 5.96875 -3.34375 C 5.664062 -3.5625 5.238281 -3.671875 4.6875 -3.671875 Z M 2.515625 -3.671875 "/></g></g></g><g fill="#695450" fill-opacity="1"><g transform="translate(215.422139, 227.083886)"><g><path d="M 6.4375 0 L 4.890625 -2.546875 C 4.816406 -2.535156 4.691406 -2.53125 4.515625 -2.53125 L 2.515625 -2.53125 L 2.515625 0 L 1.109375 0 L 1.109375 -8.40625 L 4.515625 -8.40625 C 5.585938 -8.40625 6.414062 -8.15625 7 -7.65625 C 7.59375 -7.15625 7.890625 -6.445312 7.890625 -5.53125 C 7.890625 -4.863281 7.738281 -4.296875 7.4375 -3.828125 C 7.144531 -3.359375 6.71875 -3.019531 6.15625 -2.8125 L 8.046875 0 Z M 2.515625 -3.796875 L 4.515625 -3.796875 C 5.867188 -3.796875 6.546875 -4.363281 6.546875 -5.5 C 6.546875 -6.582031 5.867188 -7.125 4.515625 -7.125 L 2.515625 -7.125 Z M 2.515625 -3.796875 "/></g></g></g><g fill="#695450" fill-opacity="1"><g transform="translate(226.498154, 227.083886)"><g><path d="M 7.109375 -7.125 L 2.515625 -7.125 L 2.515625 -4.859375 L 6.625 -4.859375 L 6.625 -3.59375 L 2.515625 -3.59375 L 2.515625 -1.265625 L 7.25 -1.265625 L 7.25 0 L 1.109375 0 L 1.109375 -8.40625 L 7.109375 -8.40625 Z M 7.109375 -7.125 "/></g></g></g><g fill="#695450" fill-opacity="1"><g transform="translate(236.770164, 227.083886)"><g><path d="M 9.75 0 L 8.296875 0 L 6.296875 -6.546875 L 4.28125 0 L 2.8125 0 L 0.03125 -8.40625 L 1.5625 -8.40625 L 3.59375 -1.578125 L 5.625 -8.390625 L 7.015625 -8.40625 L 9.0625 -1.578125 L 11.09375 -8.40625 L 12.546875 -8.40625 Z M 9.75 0 "/></g></g></g><g fill="#695450" fill-opacity="1"><g transform="translate(251.606238, 227.083886)"><g/></g></g><g fill="#695450" fill-opacity="1"><g transform="translate(233.041249, 178.339992)"><g><path d="M 3 -6.953125 C 3.695312 -6.953125 4.265625 -6.785156 4.703125 -6.453125 C 5.140625 -6.128906 5.359375 -5.695312 5.359375 -5.15625 C 5.359375 -4.519531 4.925781 -3.757812 4.0625 -2.875 L 2.65625 -1.390625 L 5.5625 -1.390625 L 5.5625 0 L 0.40625 0 L 0.40625 -1.125 L 2.875 -3.734375 C 3.3125 -4.191406 3.53125 -4.582031 3.53125 -4.90625 C 3.53125 -5.101562 3.457031 -5.257812 3.3125 -5.375 C 3.175781 -5.488281 2.988281 -5.546875 2.75 -5.546875 C 2.175781 -5.546875 1.550781 -5.253906 0.875 -4.671875 L 0.21875 -5.921875 C 1.132812 -6.609375 2.0625 -6.953125 3 -6.953125 Z M 3 -6.953125 "/></g></g></g><g fill="#695450" fill-opacity="1"><g transform="translate(241.391856, 178.339992)"><g><path d="M 3.453125 -6.9375 C 4.429688 -6.9375 5.179688 -6.632812 5.703125 -6.03125 C 6.234375 -5.425781 6.5 -4.566406 6.5 -3.453125 C 6.5 -2.328125 6.234375 -1.460938 5.703125 -0.859375 C 5.179688 -0.253906 4.429688 0.046875 3.453125 0.046875 C 2.472656 0.046875 1.71875 -0.253906 1.1875 -0.859375 C 0.664062 -1.460938 0.40625 -2.328125 0.40625 -3.453125 C 0.40625 -4.566406 0.664062 -5.425781 1.1875 -6.03125 C 1.71875 -6.632812 2.472656 -6.9375 3.453125 -6.9375 Z M 3.453125 -5.65625 C 3.015625 -5.65625 2.695312 -5.484375 2.5 -5.140625 C 2.300781 -4.796875 2.203125 -4.226562 2.203125 -3.4375 C 2.203125 -2.65625 2.300781 -2.09375 2.5 -1.75 C 2.695312 -1.40625 3.015625 -1.234375 3.453125 -1.234375 C 3.890625 -1.234375 4.207031 -1.40625 4.40625 -1.75 C 4.601562 -2.101562 4.703125 -2.671875 4.703125 -3.453125 C 4.703125 -4.234375 4.601562 -4.796875 4.40625 -5.140625 C 4.207031 -5.484375 3.890625 -5.65625 3.453125 -5.65625 Z M 3.453125 -5.65625 "/></g></g></g><g fill="#695450" fill-opacity="1"><g transform="translate(250.75436, 178.339992)"><g><path d="M 3 -6.953125 C 3.695312 -6.953125 4.265625 -6.785156 4.703125 -6.453125 C 5.140625 -6.128906 5.359375 -5.695312 5.359375 -5.15625 C 5.359375 -4.519531 4.925781 -3.757812 4.0625 -2.875 L 2.65625 -1.390625 L 5.5625 -1.390625 L 5.5625 0 L 0.40625 0 L 0.40625 -1.125 L 2.875 -3.734375 C 3.3125 -4.191406 3.53125 -4.582031 3.53125 -4.90625 C 3.53125 -5.101562 3.457031 -5.257812 3.3125 -5.375 C 3.175781 -5.488281 2.988281 -5.546875 2.75 -5.546875 C 2.175781 -5.546875 1.550781 -5.253906 0.875 -4.671875 L 0.21875 -5.921875 C 1.132812 -6.609375 2.0625 -6.953125 3 -6.953125 Z M 3 -6.953125 "/></g></g></g><g fill="#695450" fill-opacity="1"><g transform="translate(259.104967, 178.339992)"><g><path d="M 3.140625 -4.09375 L 3.46875 -4.046875 C 3.988281 -3.960938 4.398438 -3.753906 4.703125 -3.421875 C 5.015625 -3.097656 5.171875 -2.675781 5.171875 -2.15625 C 5.171875 -1.5 4.929688 -0.960938 4.453125 -0.546875 C 3.972656 -0.128906 3.335938 0.078125 2.546875 0.078125 C 2.078125 0.078125 1.609375 0.00390625 1.140625 -0.140625 C 0.679688 -0.296875 0.296875 -0.5 -0.015625 -0.75 L 0.6875 -2.078125 C 1.207031 -1.523438 1.78125 -1.25 2.40625 -1.25 C 2.75 -1.25 3.007812 -1.328125 3.1875 -1.484375 C 3.375 -1.640625 3.46875 -1.859375 3.46875 -2.140625 C 3.46875 -2.710938 3.109375 -3 2.390625 -3 L 1.296875 -3 L 1.296875 -3.9375 L 2.828125 -5.53125 L 0.328125 -5.53125 L 0.328125 -6.875 L 4.859375 -6.875 L 4.859375 -5.875 Z M 3.140625 -4.09375 "/></g></g></g><g fill="#695450" fill-opacity="1"><g transform="translate(101.68623, 178.339992)"><g><path d="M 3.328125 -6.953125 C 4.359375 -6.953125 5.265625 -6.695312 6.046875 -6.1875 L 5.390625 -4.828125 C 5.023438 -5.035156 4.632812 -5.207031 4.21875 -5.34375 C 3.8125 -5.476562 3.46875 -5.546875 3.1875 -5.546875 C 2.675781 -5.546875 2.421875 -5.378906 2.421875 -5.046875 C 2.421875 -4.828125 2.546875 -4.648438 2.796875 -4.515625 C 3.046875 -4.390625 3.347656 -4.28125 3.703125 -4.1875 C 4.066406 -4.09375 4.425781 -3.976562 4.78125 -3.84375 C 5.132812 -3.707031 5.4375 -3.488281 5.6875 -3.1875 C 5.9375 -2.882812 6.0625 -2.503906 6.0625 -2.046875 C 6.0625 -1.378906 5.800781 -0.859375 5.28125 -0.484375 C 4.769531 -0.117188 4.113281 0.0625 3.3125 0.0625 C 2.738281 0.0625 2.171875 -0.0351562 1.609375 -0.234375 C 1.054688 -0.429688 0.578125 -0.703125 0.171875 -1.046875 L 0.84375 -2.390625 C 1.1875 -2.085938 1.59375 -1.835938 2.0625 -1.640625 C 2.539062 -1.453125 2.960938 -1.359375 3.328125 -1.359375 C 3.609375 -1.359375 3.828125 -1.40625 3.984375 -1.5 C 4.140625 -1.601562 4.21875 -1.753906 4.21875 -1.953125 C 4.21875 -2.140625 4.128906 -2.296875 3.953125 -2.421875 C 3.773438 -2.554688 3.550781 -2.65625 3.28125 -2.71875 C 3.007812 -2.78125 2.71875 -2.863281 2.40625 -2.96875 C 2.09375 -3.070312 1.800781 -3.1875 1.53125 -3.3125 C 1.257812 -3.4375 1.035156 -3.632812 0.859375 -3.90625 C 0.679688 -4.175781 0.59375 -4.503906 0.59375 -4.890625 C 0.59375 -5.515625 0.84375 -6.015625 1.34375 -6.390625 C 1.84375 -6.765625 2.503906 -6.953125 3.328125 -6.953125 Z M 3.328125 -6.953125 "/></g></g></g><g fill="#695450" fill-opacity="1"><g transform="translate(110.469101, 178.339992)"><g><path d="M 2.4375 0 L 0.6875 0 L 0.6875 -6.875 L 2.4375 -6.875 Z M 2.4375 0 "/></g></g></g><g fill="#695450" fill-opacity="1"><g transform="translate(116.04926, 178.339992)"><g><path d="M 7.03125 0 L 5.5 0 L 2.328125 -4.234375 L 2.328125 0 L 0.6875 0 L 0.6875 -6.875 L 2.234375 -6.875 L 5.40625 -2.640625 L 5.40625 -6.875 L 7.03125 -6.875 Z M 7.03125 0 "/></g></g></g><g fill="#695450" fill-opacity="1"><g transform="translate(126.227174, 178.339992)"><g><path d="M 3.90625 -6.9375 C 4.414062 -6.9375 4.914062 -6.832031 5.40625 -6.625 C 5.90625 -6.414062 6.332031 -6.132812 6.6875 -5.78125 L 5.671875 -4.578125 C 5.453125 -4.859375 5.1875 -5.078125 4.875 -5.234375 C 4.5625 -5.390625 4.25 -5.46875 3.9375 -5.46875 C 3.394531 -5.46875 2.941406 -5.273438 2.578125 -4.890625 C 2.210938 -4.515625 2.03125 -4.046875 2.03125 -3.484375 C 2.03125 -2.898438 2.210938 -2.414062 2.578125 -2.03125 C 2.941406 -1.644531 3.394531 -1.453125 3.9375 -1.453125 C 4.226562 -1.453125 4.53125 -1.523438 4.84375 -1.671875 C 5.15625 -1.816406 5.429688 -2.015625 5.671875 -2.265625 L 6.6875 -1.171875 C 6.3125 -0.796875 5.867188 -0.492188 5.359375 -0.265625 C 4.859375 -0.0351562 4.359375 0.078125 3.859375 0.078125 C 2.816406 0.078125 1.953125 -0.257812 1.265625 -0.9375 C 0.578125 -1.613281 0.234375 -2.453125 0.234375 -3.453125 C 0.234375 -4.441406 0.582031 -5.269531 1.28125 -5.9375 C 1.988281 -6.601562 2.863281 -6.9375 3.90625 -6.9375 Z M 3.90625 -6.9375 "/></g></g></g><g fill="#695450" fill-opacity="1"><g transform="translate(135.481609, 178.339992)"><g><path d="M 6.078125 -5.5 L 2.4375 -5.5 L 2.4375 -4.140625 L 5.71875 -4.140625 L 5.71875 -2.765625 L 2.4375 -2.765625 L 2.4375 -1.375 L 6.1875 -1.375 L 6.1875 0 L 0.6875 0 L 0.6875 -6.875 L 6.078125 -6.875 Z M 6.078125 -5.5 "/></g></g></g></svg>